<svg xmlns="http://www.w3.org/2000/svg" viewBox="0 0 320 160"><title>client</title><path d="M137.5147,82.1381H135.49V74.1517c2.3621,0,4.4995-.1123,4.4995,2.8121,0,2.3623.1123,5.1743-2.4746,5.1743ZM126.941,104.1845h12.9356c9.2235,0,9.2235-8.7736,9.2235-11.6982,0-.45,0-6.0739-4.724-7.5361,4.1616-2.3623,3.8242-7.3115,3.8242-9.6735,0-.2252,0-7.5364-8.211-7.5364H126.941v36.4442Zm8.5488-6.5238V88.3246c3.3745.1122,4.8369,0,4.8369,4.3869,0,5.0614-1.125,4.9492-4.8369,4.9492Z" fill="#5c5d5d" fill-rule="evenodd"/><path d="M160.5735,80.1133c1.5748,0,1.5748,2.0248,1.5748,2.6994v13.498c0,.7876,0,2.7-1.5748,2.7-1.6873,0-1.6873-1.9122-1.6873-2.5871V82.7005c0-.5624,0-2.5872,1.6873-2.5872Zm.1123,24.7462c9.5613,0,9.5613-7.6489,9.5613-8.4361V84.3875c0-2.9243,0-9.7858-9.5613-9.7858-9.7857,0-9.7857,6.8615-9.7857,8.5485V96.4234c0,1.35,0,8.4361,9.7857,8.4361Z" fill="#5c5d5d" fill-rule="evenodd"/><path d="M238.4113,75.389h1.5747V69.3151h7.9865V75.389H250.11v5.8493h-2.1371v14.51c0,2.9246.45,2.6994,2.25,2.9246v5.6241a12.47,12.47,0,0,1-4.162.45c-2.1371,0-6.0742-.5624-6.0742-5.9616V81.2383h-1.5747V75.389Z" fill="#5c5d5d" fill-rule="evenodd"/><path d="M182.9575,80.9008c1.2373,0,1.2373,1.5748,1.2373,2.362V96.3107c0,1.8-.45,2.4746-1.2373,2.4746-1.0125,0-1.9123-1.1246-1.9123-3.8241V84.3875c0-1.2373.45-3.4867,1.9123-3.4867Zm-10.011,23.2837H180.82v-2.6994a6.3278,6.3278,0,0,0,5.6242,3.3744c5.849,0,5.9616-5.849,5.9616-9.336V82.1381c0-1.5748,0-7.5364-5.8494-7.5364-2.812,0-4.7239,2.3621-5.6241,3.8245V67.74h-7.9861v36.4442Z" fill="#5c5d5d" fill-rule="evenodd"/><path d="M214.34,86.1875h-7.8735V82.4756s0-2.25-1.6873-2.25c-1.5748,0-1.5748,2.1371-1.5748,3.8245V95.5235c0,1.9122,0,3.8242,1.5748,3.8242,1.6873,0,1.6873-1.687,1.6873-3.8242V91.699H214.34c-.1122,6.1865.7876,13.16-9.5608,13.16-9.6735,0-9.7861-7.4238-9.7861-10.461V84.6127c0-2.8121,0-10.011,9.7861-10.011,8.8862,0,9.5608,4.8366,9.5608,11.5858Z" fill="#5c5d5d" fill-rule="evenodd"/><path d="M224.801,93.6112c0-2.25,1.8-2.9246,3.3744-4.0493v5.0618c0,2.5869-.2249,3.5992-1.9123,3.5992a1.3563,1.3563,0,0,1-1.4621-1.4621v-3.15Zm3.3744,10.5733h7.8739V82.8127c0-5.7364-4.837-7.8735-9.561-7.8735-4.8369,0-9.6735,2.1371-9.6735,7.8735v2.0249h7.9862V82.363c0-1.1247.3374-2.1371,1.6873-2.1371s1.6871,1.0124,1.6871,2.1371c0,5.2867-11.3606,4.3868-11.3606,11.9232V98.673c0,3.7119,2.1372,5.8491,5.6242,5.8491,3.1492,0,4.6117-1.6874,5.6241-3.712h.1123v3.3744Z" fill="#5c5d5d" fill-rule="evenodd"/><path d="M62.9385,53.3425c1.9122,3.7119,2.9247,6.0742,7.0866,8.5488,4.2743,2.4746,4.8366,2.1372,5.2867,2.2494a1.37,1.37,0,0,1,.6749,1.125c1.0121,0,4.4991-.5623,6.1865-.45A39.7033,39.7033,0,0,1,90.3845,66.39c1.912.5624,4.2743,1.4622,4.6117,1.5748.45.1126,1.1247.3375,1.5748-.1126.45-.5623-.1126-.7872,2.362-1.8s4.9492-2.25,5.7367-2.5868a29.1932,29.1932,0,0,0,6.8615-4.9495c.3374-.3375.45-.45.5623-.3375a.3714.3714,0,0,1,0,.5627,57.7882,57.7882,0,0,1-3.2622,6.8614,45.888,45.888,0,0,1-4.1616,4.7243c-.45.45-2.1371,1.9119-2.1371,1.9119s-1.4625,1.2373-.1126,2.1375c1.35,1.0121.7872,2.0245-.2249,2.812-1.0124.6746-3.6,2.362-5.8493,2.1372s-1.5747,0-2.9243-.675c-.45-.2249-1.125-.2249-.7876.2249a.5847.5847,0,0,1,.1126.5623,11.6343,11.6343,0,0,0-.2249,4.7244A5.4041,5.4041,0,0,0,93.5337,86.3c.1126.2253.45.3375-.2248.3375a1.4432,1.4432,0,0,1-1.1247-.45c-.5624-.1126-2.25-.3375-2.9247.2249s-.2249.3374-1.687.6749c-.45.2249-.675.5624,0,1.35a16.7419,16.7419,0,0,0,1.4621,1.4626c.2249.1122,1.2373.3374-.1126,1.1247a8.2723,8.2723,0,0,1-5.849,1.5747,5.8979,5.8979,0,0,1-5.174-3.15c-.5627-1.1247-.3375-1.687-2.5872-1.687s-6.0742.7872-7.3115.9c-2.1371.3374-1.6871.6749-3.2618-.5624-2.1371-1.8-3.3745-3.0373-3.6-3.2621s-.9-.45-.3375-1.6874a22.8,22.8,0,0,1,3.487-5.9613c2.25-2.7,2.6994-3.2621,3.487-3.8245,1.6874-1.35.9-1.4624,2.7,0a39.3687,39.3687,0,0,0,3.9371,2.8121c1.0121.45,1.2372.5623,1.9122,2.1371A37.071,37.071,0,0,0,77.899,81.688,5.2262,5.2262,0,0,0,81.0482,83.6c2.1374,0,3.9371.1126,5.287-1.4622a9.4361,9.4361,0,0,1,1.687-3.3747c.3375-.3372.45-.6746,0-.6746a30.7711,30.7711,0,0,1-4.1619-.3375c-.9-.2252-7.9862-2.4746-8.9986-2.9247-.9-.45-5.2866-2.0245-7.5364-4.9492-2.2493-3.0369-2.4746-3.9367-3.5993-7.9861a46.5042,46.5042,0,0,1-.7875-8.5488Z" fill="#5c5d5d" fill-rule="evenodd"/><path d="M103.5447,78.0888c-.1123.7872,0,6.9736,1.35,8.661.45.3375.675.7873.2249.7873a31.5171,31.5171,0,0,1-3.2618,0c-.2249,0-.675-.1123-.675.6749.1126,1.0124-.1126,2.9247-1.8,3.6a5.98,5.98,0,0,1-5.9616-.3374c-.9-.7876-1.125-1.0125-1.2373-1.125s-.1126-.225,0-.45a20.3264,20.3264,0,0,0,2.25-2.7c.3372-.7872.2249-.7872,0-1.2373.1123.2252-1.2373-1.687,0-1.5748.9.1126,2.812.6749,4.2742,0,1.4622-.5623,2.9247-1.2373,3.487-4.4991.1123-1.2373.1123-1.5748.675-2.0249.3371-.45.6746-1.1247.6746.2253Z" fill="#5c5d5d" fill-rule="evenodd"/><path d="M106.2445,89.2244c1.5748.7872,4.0494,2.25,4.6117,3.5993.2249.3375.3375,1.125-.3375.2252a9.8126,9.8126,0,0,0-6.0739-3.2621c-1.0124-.1126-2.3623,0-2.25-.9.1123-.45,0-.9,1.5748-.5623,1.35.45,2.4746.9,2.4746.9Z" fill="#5c5d5d" fill-rule="evenodd"/><path d="M105.0072,91.1367a9.9872,9.9872,0,0,1,3.2618,2.5869c.2252.3374.45.5626.2252.6749-.3374.2252-.45.1126-.7875-.2249a12.7425,12.7425,0,0,0-5.5116-2.6994c-.5623-.2253-.9-.45-.3374-.9s.5623-.3375,1.1247-.1126c.5623.1126,1.9122.675,2.0248.675Z" fill="#5c5d5d" fill-rule="evenodd"/><path d="M103.5447,93.6112a32.3831,32.3831,0,0,1,2.7,2.5872c.2249.3372.2249.3372-.2252.225-.45,0-1.1247-.9-1.6871-1.2374a36.8334,36.8334,0,0,0-3.487-1.9122c-.5623-.2249-.7872-.3375-.3374-.7875.3374-.45.3374-.3372.6749-.2249.45.2249,2.362,1.35,2.362,1.35Z" fill="#5c5d5d" fill-rule="evenodd"/><path d="M94.3213,92.9363c.3375.2249.9.3375.45,1.35a4.7584,4.7584,0,0,1-1.8,2.5869c-.45.2252-1.8,1.125-.5624-.45a6.8579,6.8579,0,0,0,.7876-3.15c0-.5623-.1126-.7875.6746-.675a2.1022,2.1022,0,0,1,.45.3375Z" fill="#5c5d5d" fill-rule="evenodd"/><path d="M84.6478,98.8979c.5623,1.2373,1.4622,2.362,2.7,2.362a4.335,4.335,0,0,0,3.487-1.687,2.7573,2.7573,0,0,1-.45,1.687,1.5683,1.5683,0,0,0-.1126,1.4625,2.139,2.139,0,0,1,0,2.0245c-.1126.5624-.5623,1.9123-2.6994,1.9123s-4.95,0-6.0742-.45c-.7873-.3372-1.1247-.1123-1.0125-1.8a15.1542,15.1542,0,0,1,.3375-3.037c.1126-.5624.3375-.7875,1.2373-.7875h1.125c.3375-.1123.45-.2249.45-.6747a5.6006,5.6006,0,0,1,.3374-1.8c.3375-.45.45-.3374.45,0a4.6093,4.6093,0,0,1,.2249.7876Z" fill="#5c5d5d" fill-rule="evenodd"/><path d="M87.5725,93.2738a12.0967,12.0967,0,0,1-1.5748,4.0493c-.2252-1.1247-.5627-2.4745-.5627-2.9246s-.45-.6749,1.2373-1.35c1.35-.5626.9.2249.9.2249Z" fill="#5c5d5d" fill-rule="evenodd"/><path d="M70.0251,98.2229a36.04,36.04,0,0,1,5.849-4.9491,6.6415,6.6415,0,0,1,1.35-.675c1.35-.3374,1.35.45.9,1.0124A27.56,27.56,0,0,0,72.5,96.9856a22.834,22.834,0,0,0-3.7119,3.5994c-.3374.1126-.9,0-.45-.5624.675-.7872,1.6874-1.687,1.6874-1.8Z" fill="#5c5d5d" fill-rule="evenodd"/><path d="M65.1882,95.9733a22.0949,22.0949,0,0,1,9.1112-4.7244c1.35-.3371,2.5872-.5623,2.9246.1126.1123.45,0,.675-.45.7876a18.3625,18.3625,0,0,0-8.4362,2.7,21.4439,21.4439,0,0,0-3.487,2.5871c-.3374.3372-1.35,0-.5623-.5626a4.2826,4.2826,0,0,0,.9-.9Z" fill="#5c5d5d" fill-rule="evenodd"/><path d="M64.401,91.8116a26.6714,26.6714,0,0,1,7.4238-2.5872A14.2443,14.2443,0,0,1,76.099,89c1.0124,1.35.3375,1.2373-.45,1.2373a27.0254,27.0254,0,0,0-7.9864,1.35,52.3,52.3,0,0,0-6.5239,2.8121c-.3375.1126-.675.1126-.5624-.3375.1126-.3374.7875-.6746,1.0124-.7872s2.8121-1.4622,2.8121-1.4622Z" fill="#5c5d5d" fill-rule="evenodd"/><path d="M256.1835,103.8471a2.869,2.869,0,1,1,2.812-2.8121,2.7848,2.7848,0,0,1-2.812,2.8121Zm0,.45a3.3187,3.3187,0,0,0,0-6.6364,3.3187,3.3187,0,1,0,0,6.6364Zm.5626-3.15c.6747,0,1.1247-.3375,1.1247-1.0124,0-.5623-.3374-1.0124-1.35-1.0124h-1.5747v3.7119h.45v-1.6871h.7872l1.125,1.6871h.5623l-1.1247-1.6871Zm-1.35-.3375V99.46h1.0124c.5623,0,1.0121.1126,1.0121.6749,0,.7873-.7873.6749-1.35.6749Z" fill="#5c5d5d" fill-rule="evenodd"/></svg>