<svg xmlns="http://www.w3.org/2000/svg" viewBox="0 0 320 160"><title>client</title><path d="M203.6423,80A43.6423,43.6423,0,1,0,160,123.6424,43.6986,43.6986,0,0,0,203.6423,80ZM201.56,80A41.5753,41.5753,0,1,1,160,38.4093,41.5363,41.5363,0,0,1,201.56,80Zm-2.6422,0c0-13.8013-7.0252-28.0692-22.1322-32.6386a28.9352,28.9352,0,0,0-8.828-1.5851c-6.9939,0-7.2426,3.9787-10.5064,3.9787a2.8777,2.8777,0,0,1-3.0152-2.8909c0-2.7664,3.2638-4.9423,8.4549-4.9423a26.3045,26.3045,0,0,1,9.2943,1.5542l.1245-.3419A35.6281,35.6281,0,0,0,160,41.0514c-13.9256,0-28.0691,7.1494-32.6385,22.1319a29.1087,29.1087,0,0,0-1.5851,8.8282c0,7.0249,3.9787,7.3669,3.9787,10.6307a2.8538,2.8538,0,0,1-2.8909,2.9219c-2.7664,0-4.9424-3.1707-4.9424-8.4859a31.7155,31.7155,0,0,1,1.43-9.2944l-.3418-.1245A41.9615,41.9615,0,0,0,121.0513,80c0,14.019,7.1495,28.1624,22.132,32.7629a29.0405,29.0405,0,0,0,8.8282,1.5542c7.0249,0,7.2425-4.1031,10.5064-4.1031a3.0051,3.0051,0,0,1,3.0462,3.015c0,2.6734-3.1707,4.8493-8.486,4.8493a29.3615,29.3615,0,0,1-9.2943-1.461l-.1243.3729A35.0726,35.0726,0,0,0,160,118.9176c13.8948,0,28.1624-7.0251,32.6387-22.1321a28.1128,28.1128,0,0,0,1.554-8.7037c0-7.1182-3.9786-7.3669-3.9786-10.6306a2.8248,2.8248,0,0,1,2.8907-3.0153c2.7976,0,4.9736,3.2638,4.9736,8.5792a31.7572,31.7572,0,0,1-1.461,9.2944l.3729.1241A39.0478,39.0478,0,0,0,198.9176,80ZM184.2768,91.5944a11.501,11.501,0,0,1-11.5945,11.1282c-8.33,0-12.5581-7.0251-12.5581-13.304a15.0459,15.0459,0,0,1,8.5794-13.8947,4.3665,4.3665,0,0,1-1.2125-1.4609,114.8017,114.8017,0,0,1-11.1279,7.025c-.2487,3.8543-.5906,8.0819-1.5854,11.0038-2.0516,6.1545-6.2789,10.6308-11.843,10.6308-4.6938,0-6.994-3.3882-6.994-7.0251,0-2.642,1.5542-6.03,4.3518-8.5792,3.5125-3.14,7.3669-5.0667,12.6823-7.8643.1243-.7149.2487-1.43.373-2.3a7.4145,7.4145,0,0,1-4.849,1.71,5.5211,5.5211,0,0,1-5.0668-4.476,6.3627,6.3627,0,0,1-6.0614-6.5278c0-2.7666,1.0878-5.1911,2.9219-5.1911a.9747.9747,0,0,1,.9636,1.0881,23.0114,23.0114,0,0,0-.6217,3.6057c0,1.5851.7459,3.6369,2.6733,3.6369,0-6.279,4.6-14.392,10.04-14.392,3.6058,0,4.1032,2.6732,4.1032,3.8855,0,5.6884-5.6883,11.9674-10.2889,13.5217a2.2248,2.2248,0,0,0,2.0827,1.8338c1.8028,0,3.9787-1.71,5.0668-3.0462.4661-2.5178,2.3-6.1546,4.7247-6.1546a1.4134,1.4134,0,0,1,1.43,1.5852c0,1.8027-1.9271,4.1031-3.3881,5.6574a21.7028,21.7028,0,0,0-.342,3.6368,112.394,112.394,0,0,0,9.5429-6.1547,10.208,10.208,0,0,1-.2486-2.7975c0-5.6574,3.7611-11.9674,8.7036-11.9674a3.9689,3.9689,0,0,1,4.2275,4.1342c0,4.103-3.5128,7.7088-8.455,11.47a4.1323,4.1323,0,0,0,1.9273,2.3c.1244-.2489,1.71-.4974,3.0149-.4974,1.4613,0,3.5128.373,3.5128,1.8338,0,1.6784-2.3,2.0516-4.1031,2.0516a9.3291,9.3291,0,0,1-2.5489-.2485c-2.6421.7146-7.74,3.7611-7.74,11.47,0,5.2221,3.2641,10.04,8.3619,10.04,3.8544,0,6.9939-2.891,7.1182-7.3669,0-2.8912-1.2123-5.9373-4.1032-5.9373a2.693,2.693,0,0,0-2.7665,2.6733c-.1241,2.4243,1.6788,2.6731,1.6788,4.2274a1.5544,1.5544,0,0,1-1.6788,1.5853c-2.4244,0-4.2584-2.4245-4.2584-5.44,0-3.6369,3.1706-6.652,7.2737-6.652,5.3154,0,8.0819,4.6005,8.0819,9.543v0Zm-8.9212-30.4627c0-.5906-.1242-1.3365-.87-1.3365-1.8028,0-4.6938,3.8855-4.6938,8.828,3.606-3.14,5.5641-5.8128,5.5641-7.4913v0Zm-21.4171-.4974a.7539.7539,0,0,0-.8393-.8391c-2.549,0-6.1548,6.6521-6.1548,10.6308,3.979-2.1761,6.9941-7.1182,6.9941-9.7915v0Zm-1.43,22.6294c-5.44,2.6424-12.3407,7.3671-12.3407,12.5582,0,1.927.9637,3.14,2.7666,3.14,5.3153,0,8.5792-8.455,9.5741-15.6976v0Z" fill="#5c5d5d" fill-rule="evenodd"/></svg>