<svg xmlns="http://www.w3.org/2000/svg" viewBox="0 0 320 160"><title>client</title><path d="M94.8221,42.1708c.3695.1893.7343.3887,1.1095.5662,2.9859,1.4127,5.9384,2.8978,9.02,4.1023a141.0641,141.0641,0,0,0,16.3162,5.2469c3.7593.9645,7.5464,1.804,11.3776,2.4268,2.25.3658,4.5038.7174,6.7668.9828,2.5014.2933,5.0128.5119,7.5244.7032,1.5984.1217,3.2045.1569,4.808.19,1.7054.0354,3.4125.058,5.1175.022,2.0428-.043,4.0853-.1339,6.126-.2419q2.36-.1251,4.7154-.348,2.5987-.2476,5.1884-.5888c2.0234-.27,4.0476-.5487,6.0573-.9038q3.6622-.6469,7.2995-1.4334a145.6834,145.6834,0,0,0,15.1943-4.2194,102.28,102.28,0,0,0,12.8152-5.3247c.7468-.3684,1.5057-.7123,2.2581-1.0693a1.8956,1.8956,0,0,0,.1807-.111h.0551q-.3537.9648-.7074,1.93c-.8369,2.2846-1.7339,4.5494-2.4958,6.8587a67.24,67.24,0,0,0-2.2493,9.22c-.3424,1.91-.6539,3.8266-.9161,5.7489q-.3322,2.4363-.5127,4.8925c-.1546,2.1018-.2521,4.2082-.3453,6.3138a69.2857,69.2857,0,0,0,.1118,7.67c.1254,1.8831.2649,3.7667.4628,5.6433.3044,2.8877.7536,5.7562,1.3136,8.6059a81.1025,81.1025,0,0,0,2.09,8.5823c.682,2.1821,1.4091,4.35,2.1155,6.5247.0189.0584.0307.1192.06.2351-.5544-.2582-1.0646-.4935-1.5728-.7329-3.4855-1.6417-6.9782-3.2638-10.5934-4.6113a155.5682,155.5682,0,0,0-16.8929-5.24c-3.323-.8242-6.6692-1.5474-10.0489-2.0928-2.4037-.3879-4.8165-.7371-7.2364-1.0019-2.3579-.258-4.7272-.4659-7.0967-.5524-2.9866-.109-5.9788-.11-8.968-.0856-1.9233.0157-3.8481.1235-5.7674.2586-2.1934.1544-4.3859.345-6.57.5929q-3.5754.4058-7.1344.9514c-3.854.5962-7.6743,1.3718-11.4669,2.2843a143.1848,143.1848,0,0,0-14.9538,4.458,89.4591,89.4591,0,0,0-9.5524,4.1083c-.9754.4847-1.9618.9473-2.9441,1.4182-.09.0431-.1859.0729-.2791.1088v-.11c.1027-.2688.2138-.5348.3069-.807a106.9546,106.9546,0,0,0,4.0178-13.7954c.5054-2.5587.9878-5.1242,1.383-7.7016.3093-2.0173.5223-4.0535.68-6.089.17-2.201.2953-4.41.313-6.6171.0179-2.2257-.0827-4.4546-.2018-6.6784-.0941-1.7558-.2516-3.5111-.46-5.2573-.24-2.0087-.5412-4.0112-.8611-6.0091-.4862-3.0367-1.1509-6.037-1.9058-9.0184-.6857-2.7084-1.6236-5.3371-2.4748-7.9933-.2145-.67-.4214-1.3418-.6318-2.0127Zm2.5141,2.9217c7.2278,22.1179,7.4051,44.1728-.1449,66.25.1111-.0474.1778-.0733.2423-.1038,1.3224-.6268,2.6275-1.2934,3.97-1.8743a120.12,120.12,0,0,1,15.8717-5.4674c4.36-1.2008,8.7651-2.2111,13.2212-2.9875,1.9987-.3482,4.0015-.6767,6.0091-.9691,1.5564-.2267,3.1211-.4009,4.6855-.5665,1.7109-.181,3.424-.3485,5.1394-.4791,1.5981-.1216,3.2-.2006,4.8012-.2728,1.2818-.0578,2.5655-.1086,3.8482-.1065,2.1546.0036,4.31.0179,6.4634.0914,1.8028.0614,3.6038.195,5.4029.3323q1.9842.1515,3.9606.4c1.6232.2053,3.2478.4176,4.858.7038,2.7252.4845,5.4517.9737,8.1559,1.5612a141.786,141.786,0,0,1,14.4134,3.9806,118.0621,118.0621,0,0,1,14.6395,5.8283c.0831.04.1717.0694.2854.1147-.433-1.3519-.8785-2.6483-1.2636-3.9624a99.4643,99.4643,0,0,1-3.0741-15.02c-.2161-1.6413-.375-3.2916-.5085-4.9419-.1388-1.7159-.2626-3.4356-.3081-5.1559-.0769-2.9062-.0681-5.8141.135-8.7171.1029-1.47.1928-2.9427.34-4.409.1752-1.7474.359-3.4963.6236-5.2316.3166-2.0769.6754-4.15,1.1-6.2072A65.2971,65.2971,0,0,1,213.51,46.5024c.1727-.4264.3255-.861.5085-1.3475-.1468.0632-.23.0967-.3119.1345-1.4439.6692-2.8717,1.376-4.3344,2.0014a115.2669,115.2669,0,0,1-12.2106,4.339c-4.4822,1.3453-9.0157,2.4892-13.6091,3.3845q-3.2538.6343-6.5285,1.16c-1.7957.2915-3.6.5363-5.4054.7592-1.498.1849-3.0021.3249-4.5062.4537q-2.5317.2169-5.0686.3735c-1.335.08-2.6727.1378-4.01.1567-3.32.0469-6.64.0748-9.9564-.1394-1.59-.1027-3.1813-.2-4.7685-.34-1.54-.1357-3.0793-.2952-4.6123-.4945-1.8945-.2461-3.7926-.4874-5.67-.8325-3.0722-.5646-6.1429-1.151-9.1895-1.8377a130.7425,130.7425,0,0,1-13.4605-3.8375A97.7449,97.7449,0,0,1,99.3275,46.04C98.6717,45.7232,98.0121,45.414,97.3362,45.0925Z" fill="#5c5d5d"/><path d="M225.3982,114.7008a9.3483,9.3483,0,0,1-.39,1.1584,3.5438,3.5438,0,1,1,.3352-2.1873.8506.8506,0,0,0,.0552.1478Zm-3.5824,2.3839a2.8192,2.8192,0,1,0-2.8207-2.8309A2.816,2.816,0,0,0,221.8158,117.0847Z" fill="#5c5d5d"/><path d="M211.2884,48.0854a100.8553,100.8553,0,0,0-4.8041,30.2875,104.5049,104.5049,0,0,0,4.1778,30.3558c-.2261-.096-.407-.1711-.5865-.2494a140.4876,140.4876,0,0,0-16.7968-5.9878c-4.1408-1.21-8.3256-2.2466-12.56-3.0675-2.3584-.4572-4.7312-.8462-7.1056-1.2131-1.5538-.24-3.12-.4073-4.6846-.5675q-2.4723-.2531-4.9526-.4261-1.6172-.1155-3.241-.1321c-2.3664-.0283-4.7335-.0543-7.1-.03-1.5383.016-3.0759.1166-4.6132.1907-1.0065.0485-2.0131.1034-3.0177.18-1.1682.09-2.3346.2021-3.501.3133-.9382.0894-1.8763.1825-2.8126.2907-1.0449.1207-2.0893.2478-3.1308.3948q-1.7512.2474-3.4963.5373c-1.6038.2679-3.2132.5129-4.8039.8454-2.7171.5679-5.4346,1.1436-8.1288,1.81a128.0753,128.0753,0,0,0-18.589,6.0619c-.5989.25-1.1885.5218-1.8158.7982a104.6979,104.6979,0,0,0,4.5876-30.2445,109.3192,109.3192,0,0,0-4.4908-30.28c.0877.0286.16.0453.2269.0748a133.7155,133.7155,0,0,0,21.7783,7.2966q5.0145,1.2516,10.1077,2.1272c2,.34,4.0093.63,6.02.897,1.6592.22,3.3254.3944,4.992.55q2.242.2094,4.4919.33c1.5555.0847,3.1133.1375,4.6707.1724,1.5127.0338,3.0267.0533,4.5394.0312,1.6675-.0243,3.3351-.086,5.0011-.1633q2.1132-.0979,4.2226-.2724,2.4489-.2052,4.8917-.4818c1.6449-.1846,3.2911-.3711,4.9266-.623,2.239-.3447,4.4721-.7316,6.7011-1.1369,3.7412-.68,7.4412-1.5477,11.1111-2.54a126.9273,126.9273,0,0,0,16.9565-5.7694C210.7263,48.3324,210.99,48.2155,211.2884,48.0854ZM110.3529,96.1012c.1108-.0246.1886-.0367.2634-.0591a166.8993,166.8993,0,0,1,25.2172-5.5191c1.8757-.2574,3.758-.4735,5.6421-.66,1.8221-.1808,3.6489-.3222,5.4763-.4386,1.6366-.1043,3.2763-.1951,4.9155-.2129q3.8246-.0415,7.65.0332c1.8859.04,3.77.1639,5.6542.2754q1.7817.1055,3.5587.2875,2.0336.2081,4.06.4844c1.639.2245,3.2816.4386,4.9074.74,2.3165.429,4.6281.8937,6.926,1.4129a103.3463,103.3463,0,0,1,14.0176,4.2535c.57.2172,1.137.4435,1.7371.678-.0225-.4-.0392-.7631-.0641-1.1258-.0865-1.2607-.1806-2.521-.2593-3.7822a.362.362,0,0,0-.2571-.3634,100.1867,100.1867,0,0,0-12.5527-4.2658c-2.9389-.7886-5.9012-1.4773-8.9017-1.9863-2.0721-.3516-4.148-.6867-6.23-.9707-1.6131-.22-3.2372-.3643-4.859-.5141q-2.0786-.1918-4.1629-.3169c-1.2253-.0757-2.4526-.14-3.68-.16-1.9158-.0314-3.8329-.0546-5.7483-.02-2.2722.0407-4.5438.134-6.8147.228-1.18.0488-2.36.13-3.5369.23q-2.1609.1839-4.3167.4271c-1.5451.1716-3.0915.3407-4.6291.5668-1.9977.2939-3.99.6281-5.98.9716-3.1517.544-6.2728,1.2325-9.3666,2.044-.4024.1055-.8027.219-1.2315.3363.007-.0714.0075-.1055.0141-.1384a36.1264,36.1264,0,0,0,.6647-6.2444c.0479-1.9155.0229-3.8344-.0307-5.75-.0445-1.5926-.1513-3.1849-.2779-4.7735-.1338-1.6781-.2959-3.3551-.4967-5.0265-.2245-1.87-.5117-3.7317-.756-5.5992a.3677.3677,0,0,0-.3006-.3521c-1.3588-.459-2.7136-.93-4.07-1.3955-.6179-.2123-1.2366-.4222-1.8817-.6424.0067.0731.0079.1078.0134.1417.1384.8573.2907,1.7125.4129,2.572q.2722,1.9147.5078,3.8345c.1394,1.1534.2673,2.3088.37,3.466q.1489,1.6828.2333,3.3713c.0812,1.5827.1583,3.1662.1943,4.75.0266,1.1727.0018,2.3473-.0306,3.52-.0357,1.2911-.0661,2.5845-.1712,3.8711-.1466,1.7958-.3067,3.5938-.5607,5.3766-.2379,1.6708-.6,3.3241-.9195,4.9828C110.61,95.1187,110.476,95.5911,110.3529,96.1012Zm34.2864-26.212.3647,7.67c-.12-.1127-.1859-.17-.247-.2318q-1.5384-1.556-3.0757-3.1132-1.75-1.7732-3.5-3.5453a.3408.3408,0,0,0-.23-.11c-.8172.0851-1.6331.1833-2.4834.2819l1.2493,10.7863,2.6989-.2862-.942-6.921a.5589.5589,0,0,1,.2509.1638q2.7466,2.95,5.4969,5.8965a.5714.5714,0,0,0,.3682.1656c.9268.0132,1.8538.0067,2.7807.0049.07,0,.14-.0121.2354-.0209-.1626-3.6442-.3245-7.271-.4876-10.9248ZM152.15,80.1964a.9536.9536,0,0,0,.1141.0132c1.9074-.017,3.8158-.0044,5.7218-.0642a3.3905,3.3905,0,0,0,2.6079-1.3369,6.5558,6.5558,0,0,0,1.3267-4.1042,5.5262,5.5262,0,0,0-1.9236-4.2754,4.0289,4.0289,0,0,0-2.8438-1.1123c-1.1457.0131-2.2909.0572-3.4365.08-.51.01-1.02.0017-1.5666.0017Zm-30.9536,4.1964a1.2421,1.2421,0,0,0,.1949-.0013c.736-.1386,1.47-.2921,2.2085-.4122a.4491.4491,0,0,0,.3973-.3115c.1919-.5031.3946-1.0023.5744-1.51a.3049.3049,0,0,1,.2764-.2426q1.96-.32,3.9166-.6671c.1449-.0258.2444-.0288.3274.0992.2482.3832.5227.7521.737,1.1532a.29.29,0,0,0,.3617.1807q.487-.0793.9742-.1573l1.8-.29c-.44-.6384-.9118-1.239-1.2933-1.8924q-2.3128-3.9615-4.5732-7.9535c-.1281-.2249-.2367-.244-.47-.1941-.8734.1872-1.7527.3479-2.632.5056-.1326.0238-.1853.0567-.2016.1947-.06.5084-.1306,1.0157-.2049,1.5223a60.0662,60.0662,0,0,1-1.7187,7.8086C121.666,82.9436,121.4277,83.6528,121.1962,84.3928Zm44.2676-8.5772c.0424.3493.0691.7335.1379,1.11.6336,3.4663,3.5911,4.7077,6.2547,4.3664a4.64,4.64,0,0,0,3.5117-2.4267,6.5439,6.5439,0,0,0,.6345-4.9133,4.7271,4.7271,0,0,0-2.2857-3.2763,5.6659,5.6659,0,0,0-3.1527-.6421,4.85,4.85,0,0,0-2.67.8848A6.0969,6.0969,0,0,0,165.4638,75.8156Zm16.9092,4.4051a76.1934,76.1934,0,0,0,1.1786-8.3916l-2.6174-.3568a89.8655,89.8655,0,0,1-1.6463,10.7124l7.6672,1.7335c.1034-.7419.21-1.5191.3214-2.2958.0236-.1652-.0822-.1992-.2035-.232-.599-.1622-1.1945-.3387-1.797-.4869C184.32,80.6683,183.3588,80.4515,182.373,80.2207Zm10.6838-5.9433c-.4971,3.621-.8533,7.22-1.6975,10.7518a55.1,55.1,0,0,1,7.3021,2.2347,2.1225,2.1225,0,0,0-.0014-.2621c-.1044-.77-.2159-1.5385-.316-2.3088a.3322.3322,0,0,0-.2728-.3191c-.5808-.16-1.1572-.336-1.7363-.5022-.69-.1981-1.3817-.3925-2.0775-.59a1.9365,1.9365,0,0,1,.0188-.2073c.2269-1.1.4982-2.1922.6734-3.3.2469-1.5607.4247-3.1323.6229-4.7a.2366.2366,0,0,0-.1239-.1917C194.6653,74.6761,193.8785,74.4828,193.0568,74.2774Z" fill="#5c5d5d"/><path d="M222.4657,114.49l1.0789,1.649c-.376,0-.6712.0091-.9648-.0084-.0527-.0031-.1083-.11-.1463-.1785-.1562-.28-.3017-.5654-.46-.8442a.86.86,0,0,0-.9725-.4585v1.4794h-.7759V112.41c.56,0,1.1165-.0025,1.6724.0016a4.57,4.57,0,0,1,.4656.0341.99.99,0,0,1,.9181.8761,1.0189,1.0189,0,0,1-.6367,1.1026C222.57,114.4563,222.4918,114.4805,222.4657,114.49Zm-1.4613-.5025c.3427,0,.6544.0114.9649-.0033a.4458.4458,0,0,0,.47-.44.4175.4175,0,0,0-.3978-.4724c-.34-.0333-.686-.0079-1.0368-.0079Z" fill="#5c5d5d"/><path d="M154.63,78.0863v-6.528c.3748,0,.7382-.0029,1.1015.0007a11.8891,11.8891,0,0,1,1.5652.0347,2.2353,2.2353,0,0,1,1.8568,1.6959,5.7776,5.7776,0,0,1,.0831,3.1923,1.89,1.89,0,0,1-1.9055,1.5942C156.4452,78.1255,155.5538,78.0863,154.63,78.0863Z" fill="#5c5d5d"/><path d="M125.8693,75.7591l2.255,3.8056-3.1219.495.7922-4.2918Z" fill="#5c5d5d"/><path d="M167.8408,75.9521a4.65,4.65,0,0,1,1.0676-2.9155,2.7155,2.7155,0,0,1,3.061-.8053,2.4754,2.4754,0,0,1,1.7894,2.2876,6.2485,6.2485,0,0,1-.2942,2.9471,2.5423,2.5423,0,0,1-2.6032,1.813,2.7745,2.7745,0,0,1-2.8568-2.2187C167.92,76.6978,167.8938,76.3218,167.8408,75.9521Z" fill="#5c5d5d"/></svg>