<svg xmlns="http://www.w3.org/2000/svg" viewBox="0 0 320 160"><title>client</title><path d="M244.6789,68.0922a1.877,1.877,0,0,0-1.8775-1.8809h-2.7792a1.88,1.88,0,0,0-1.8775,1.8839V97.1791a1.8794,1.8794,0,0,0,1.8775,1.8822h2.7812a1.88,1.88,0,0,0,1.8755-1.8852V68.0922Z" fill="#5c5d5d" fill-rule="evenodd"/><path d="M248.225,68.8648v1.3831a1.0368,1.0368,0,0,0,1.04,1.0338h19.184a1.5826,1.5826,0,0,0,1.5844-1.582V67.359a1.5348,1.5348,0,0,0-1.5861-1.5817s-18.5466,1.82-19.1414,1.8869a1.1862,1.1862,0,0,0-1.0811,1.2006Z" fill="#5c5d5d" fill-rule="evenodd"/><path d="M232.692,99.0633a7.5364,7.5364,0,0,1-7.7761-7.6492l-.0037-11.6368h-1.3663a1.3144,1.3144,0,0,1-1.3163-1.3149v-1.948a1.3158,1.3158,0,0,1,1.3211-1.3136l1.3615.0023-.002-7.1555a1.83,1.83,0,0,1,1.8305-1.8335l2.7132-.0007a1.8375,1.8375,0,0,1,1.8305,1.84v7.15l4.2287-.0014a1.316,1.316,0,0,1,1.3206,1.3133v1.9483a1.3155,1.3155,0,0,1-1.3169,1.315l-4.2324-.001.0047,10.7632a3.3009,3.3009,0,0,0,3.5675,3.5561l.3848-.0019a1.4288,1.4288,0,0,1,1.434,1.4266v2.1136a1.4285,1.4285,0,0,1-1.432,1.4284Z" fill="#5c5d5d" fill-rule="evenodd"/><path d="M188,74.3638c-7.7167,0-12.0441,6.0375-12.043,12.4006,0,6.78,4.6332,12.7494,12.0919,12.7494,5.1059,0,10.1373-2.69,11.088-7.1052a1.14,1.14,0,0,0-1.1123-1.3817l-3.6478.0007a1.8183,1.8183,0,0,0-1.53.7954,5.3811,5.3811,0,0,1-4.8322,2.3438,5.5761,5.5761,0,0,1-5.5768-5.3082h15.5112a1.85,1.85,0,0,0,2.0676-2.0952c0-6.2032-3.6735-12.4-12.0167-12.4Zm0,4.9791a5.4408,5.4408,0,0,1,5.555,4.7688H182.4838A5.4021,5.4021,0,0,1,188,79.3429Z" fill="#5c5d5d" fill-rule="evenodd"/><path d="M258.6823,74.3638c-7.7167,0-12.044,6.0375-12.0433,12.4006,0,6.78,4.6335,12.7494,12.0919,12.7494,5.1059,0,10.1376-2.69,11.0883-7.1052a1.14,1.14,0,0,0-1.1127-1.3817l-3.6473.0007a1.818,1.818,0,0,0-1.53.7954,5.382,5.382,0,0,1-4.8325,2.3438,5.5755,5.5755,0,0,1-5.5765-5.3082h15.5112a1.85,1.85,0,0,0,2.0677-2.0952c0-6.2032-3.6739-12.4-12.0168-12.4Zm0,4.9791a5.44,5.44,0,0,1,5.5547,4.7688H253.1662a5.402,5.402,0,0,1,5.5161-4.7688Z" fill="#5c5d5d" fill-rule="evenodd"/><path d="M219.695,66.5375H169.45a2.0662,2.0662,0,0,0-2.0644,2.07l.1731,19.7325S156.7317,68.7829,156.1671,67.786a3.6864,3.6864,0,0,0-3.2488-1.8038h-4.131a2.0682,2.0682,0,0,0-2.0674,2.0695l.002,28.9389a2.0668,2.0668,0,0,0,2.0664,2.0693h2.65a2.07,2.07,0,0,0,2.0657-2.073L153.337,76.7s10.9316,19.7509,11.3989,20.5288A3.6345,3.6345,0,0,0,167.981,99.06l3.795.0014a2.0673,2.0673,0,0,0,2.0653-2.0707L173.84,71.4417l45.8579.001a1.41,1.41,0,0,0,1.4126-1.4086V67.946a1.412,1.412,0,0,0-1.4159-1.4085Z" fill="#5c5d5d" fill-rule="evenodd"/><path d="M211.5617,79.1014c2.1854,0,3.8194.7936,4.4088,2.1616.2824.6578.8292.7856,1.5816.7856h3.0047a1.0933,1.0933,0,0,0,1.0653-1.0764c0-3.4937-4.1633-6.6118-10.0621-6.6118-6.1018,0-10.1068,2.9077-10.1068,7.5369,0,3.5427,2.7973,5.6514,6.2384,6.55,1.57.41,4.2467,1.0721,5.5513,1.4139,1.4059.369,2.6625.7985,2.6625,2.0034,0,1.9-2.0053,2.547-4.19,2.547-2.0731,0-4.1387-.9255-4.73-2.4038-.3438-.8574-.9422-.9809-1.853-.9809h-3.0563a1.1751,1.1751,0,0,0-1.1452,1.1536v.3922c0,3.3813,4.5336,6.92,10.7891,6.92,4.4359,0,10.6163-1.8433,10.6163-7.7921,0-3.4451-2.3056-5.8312-6.0572-6.7835-1.4666-.373-4.9926-1.27-5.7593-1.4672-1.367-.3536-2.6417-.8-2.6417-1.9715,0-1.7732,1.6386-2.3773,3.6836-2.3773Z" fill="#5c5d5d" fill-rule="evenodd"/><path d="M100.3376,59.8506a1.0072,1.0072,0,1,0-1.0074-1.007,1.0065,1.0065,0,0,0,1.0074,1.007Z" fill="#5c5d5d" fill-rule="evenodd"/><path d="M86.8139,58.0677a.8482.8482,0,1,0-.849-.8484.8472.8472,0,0,0,.849.8484Z" fill="#5c5d5d" fill-rule="evenodd"/><path d="M76.6763,78.786l-.4126-.4428a9.3255,9.3255,0,0,0,2.5652-3.7714c.1831-.9309,1.5212-.7829,1.2663.2294-.3247,1.2929-1.9077,2.8544-3.4189,3.9848Z" fill="#5c5d5d" fill-rule="evenodd"/><path d="M68.0955,58.42c-2.117.9155-2.4277,3.0865-.9426,4.3894A2.6791,2.6791,0,0,0,71.6117,60.61a3.5787,3.5787,0,0,0,3.5675-4.0994,2.317,2.317,0,0,0-.106-3.6383,2.2664,2.2664,0,0,0-3.4907,1.0791,3.3045,3.3045,0,0,0-3.487,4.4685l-1.0194-.4458A3.4838,3.4838,0,0,1,70.97,52.9571a3.4619,3.4619,0,0,1,5.05-1.4384,3.28,3.28,0,0,1,.2741,5.42c.9288,2.7014-.9225,4.9087-3.7406,4.6561-.33,3.4742-3.6081,3.9227-5.7251,2.2737a5.56,5.56,0,0,1-1.9148-3.1966,5.1609,5.1609,0,0,0-1.26-3.015,3.2378,3.2378,0,0,0-2.1371-.7742,3.86,3.86,0,0,0-5.2924-3.7154,2.1263,2.1263,0,0,0-3.2418.1225,2.0173,2.0173,0,0,0,.8192,3.1045c-.0859,2.3,1.6688,3.7691,4.233,3.5651a3.2183,3.2183,0,0,0,2.6571,2.5213l-.0107.6139a2.88,2.88,0,0,0-2.8292,1.3837c-3.0133-.1416-5.1247,1.1986-5.0374,3.3612a2.2229,2.2229,0,0,0-1.313,3.8013,2.15,2.15,0,0,0,3.5625-.692,3.3933,3.3933,0,0,0,4.1109-2.8909c1.9956,0,2.87-.79,3.1962-2.6252l.7537.061c.2224,1.9771-.692,3.8519-3.074,3.6286a3.2028,3.2028,0,0,1-4.488,2.8643,3.1389,3.1389,0,0,1-5.2012.7944,3.2533,3.2533,0,0,1,1.2469-5.5219c.055-2.3125,1.7641-4.5107,5.0841-3.6637a1.8371,1.8371,0,0,1,1.4656-1.0942,1.9376,1.9376,0,0,1-1.3593-1.3784A3.4292,3.4292,0,0,1,52.7366,57.03a3.0129,3.0129,0,0,1-1.1751-4.748,3.2542,3.2542,0,0,1,4.854-.1979,3.9759,3.9759,0,0,1,6.0773,3.7248,2.9827,2.9827,0,0,1,3.0841,3.5424,1.93,1.93,0,0,1,1.4992-1.3767l1.0194.4458Z" fill="#5c5d5d" fill-rule="evenodd"/><path d="M73.1591,54.3888l.4988.3559a17.0587,17.0587,0,0,1-4.1431,5.3981l-.5592-.421a35.1869,35.1869,0,0,1,4.2035-5.333Z" fill="#5c5d5d" fill-rule="evenodd"/><path d="M58.7371,65.5948l.3358.4991a21.7507,21.7507,0,0,1-4.6812,3.5015l-.4683-.5089a17.2312,17.2312,0,0,1,4.8137-3.4917Z" fill="#5c5d5d" fill-rule="evenodd"/><path d="M61.6572,59.5322l-.5894.7293a31.5215,31.5215,0,0,1-5.4654-4.8845L56.1,54.87a26.7479,26.7479,0,0,1,5.557,4.662Z" fill="#5c5d5d" fill-rule="evenodd"/><path d="M58.6915,86.2807c.1831.9164.0305,1.9285.8547,2.917a40.5462,40.5462,0,0,0,3.0529,3.5444,34.0918,34.0918,0,0,1-7.0035,2.1888,4.27,4.27,0,0,0-1.3941.62A6.6285,6.6285,0,0,0,53.5,97.8832a18.9779,18.9779,0,0,0-.0758,2.2746,12.0324,12.0324,0,0,0,1.1543,4.3827,5.1864,5.1864,0,0,0,2.4632,2.5729,3.8013,3.8013,0,0,1,1.2167-.1563,4.5173,4.5173,0,0,1,3.6483,1.7239c.2258.3113.6807.3733,1.2777.3733a12.8438,12.8438,0,0,0,4.3505-1.0043c.3093-.255,1.18-.8346,2.0352-1.5069s5.6178-4.712,7.7247-5.73a10.646,10.646,0,0,0,4.8151,1.3747,3.8619,3.8619,0,0,0,.8547-.0819c.5877-.1328,1.3415-.3945,2.29-.58a33.2588,33.2588,0,0,1,4.27-.6129c1.5632.0248,6.141.1423,7.2266.1423,1.1388,0,2.7624-.099,3.3823-.16a43.16,43.16,0,0,0,5.1408-1.853,42.891,42.891,0,0,0,7.0428-4.5692,6.6959,6.6959,0,0,0,.8691-.9392c.0838-.1148.1141-.16.1141-.2526s-.0228-3.015-.0228-3.015,1.0264-1.14,1.42-1.5343a.1434.1434,0,0,0,.0346-.1265,16.4785,16.4785,0,0,1-.252-4.2485l-1.04-.4851a10.6484,10.6484,0,0,1-1.6628,5.46c-1.5468.2455-4.4984,1.1606-5.5614,2.3693l.5847.1657a6.7049,6.7049,0,0,1,3.2874-.9359c1.0791,0,1.5558.2851,1.5558.5874a3.2071,3.2071,0,0,1-.2815.8849,2.3069,2.3069,0,0,1-.3367.6189,20.2533,20.2533,0,0,1-5.1163,4.0495,19.9481,19.9481,0,0,1-4.6349,1.8336c-.5988.1687-1.42.4119-1.954.5957-.7538-.0211-4.6926-.1378-6.9928-.1378a54.7655,54.7655,0,0,0-8.55.7175c-.684.1728-.8541.4475-1.6491.4475a12.2555,12.2555,0,0,1-4.63-1.3331,9.0423,9.0423,0,0,0-1.0385.4576c-.85.423-2.7383,3.0438-3.8369,2.25-.56,1.1495-2.9818,2.2377-3.81,3.4316.0909-.6256,1.0684-4.6718,1.16-5.48a.5682.5682,0,0,0-.0617-.4122c-.8842-1.4763-3.3552-2.4146-4.748-2.6876-.4085-.0806-.61-.1376-.8852-.1983l-2.1979-.6641-2.0392.6641,2.3526.45-2.9859,1.9775c.5189-.1989,3.7356-1.0916,3.9744-1.163a1.5761,1.5761,0,0,1,.9973-.02c.4371.1522,1.6792.4374,2.4176.6944a3.3363,3.3363,0,0,1,1.329,1.373,5.7576,5.7576,0,0,1,.1517,1.3747,7.38,7.38,0,0,1-.2285,1.8013,11.861,11.861,0,0,1-1.2066,3.0234,1.9866,1.9866,0,0,1-1.09.9342,5.6767,5.6767,0,0,1-2.3308.5086c-.6067.006-1.0133-.0259-1.2723-.3774a5.2245,5.2245,0,0,0-4.8858-1.77c-1.2613-.7632-2.5122-3.2264-2.5122-5.1891a15.09,15.09,0,0,1,.9141-3.961A40.1977,40.1977,0,0,0,63.83,93.4653a18.3013,18.3013,0,0,1,2.6665-.4284c2.6876,0,5.3538,2.3512,6.9723,3.9389a2.2058,2.2058,0,0,1,2.1375-1.0993c1.9027,0,2.9919,1.7306,3.5373,3.5089l.992-.72A5.6243,5.6243,0,0,0,78.63,95.7313a4.5976,4.5976,0,0,0-2.8858-1.2006c-.5888,0-1.2006.1315-1.5861.1315-1.36,0-1.9137-.6048-2.9174-1.2979a9.8124,9.8124,0,0,0-4.5393-1.8332c-.9268,0-1.3434.3626-2.1073.3653a2.2975,2.2975,0,0,1-2.0808-1.1318c-.2354-.2932-1.3736-1.3035-1.6789-1.71a7.3432,7.3432,0,0,1-.5971-1.6662l-1.5454-1.1073Z" fill="#5c5d5d" fill-rule="evenodd"/><path d="M60.2369,87.388a8.6967,8.6967,0,0,0,1.0493,1.0466,12.6648,12.6648,0,0,0,1.36.8229,12.0066,12.0066,0,0,0,2.1526,1.0392,8.4131,8.4131,0,0,0,2.2887.2774,8.37,8.37,0,0,1,3.5675.2818c.7407.3448.79,1.1277,1.3787,1.3568a19.9606,19.9606,0,0,0,4.8715.4378,36.6151,36.6151,0,0,0,7.6026-.7816l-.8708-.9593a60.53,60.53,0,0,1-6.5252.5927c-2.3438,0-4.5581-.3737-4.5581-1.3442a1.9307,1.9307,0,0,1,2.0959-1.64,15.6065,15.6065,0,0,1,4.118,1.0157.98.98,0,0,0,.8406-.0315l.8638-.4442a26.6241,26.6241,0,0,0-6.5282-1.907,1.5086,1.5086,0,0,0-1.4418.6441c-.534.6877-1.959,1.3133-4.234,1.3133a15.038,15.038,0,0,1-3.4229-.3838,18.1663,18.1663,0,0,1-2.8859-1.68,10.36,10.36,0,0,1-2.7323-2.7168,1.8048,1.8048,0,0,1-.2891-.9925,5.0687,5.0687,0,0,1,.1053-.7176,4.9186,4.9186,0,0,0,.6857.73,9.643,9.643,0,0,0,4.7966,2.3977,7.7039,7.7039,0,0,0,1.4941.1775,3.0781,3.0781,0,0,0,1.9529-.8249l-.7158-.8309a4.7191,4.7191,0,0,1-1.0238.0688c-2.646,0-6.0052-1.7309-6.7771-3.7339-.0768-.1969-.1691-.3043-.0919-.4878a4.9436,4.9436,0,0,0,.2284-.9311,4.5075,4.5075,0,0,0,.8809.7074c.9832.6317,2.8587,1.5038,3.2257,1.7346a11.8,11.8,0,0,0,2.2187-.8826A4.7589,4.7589,0,0,1,68.0905,80.2c1.9342,0,4.1565,1.102,6.2444,2.1308l1.4243-.5606c-1.8524-1.3018-5.8831-3.124-8.1226-3.124-1.3223,0-2.5642.9665-3.4494.9665-1.0866,0-4.1988-1.5163-4.1988-2.7809,0-.9728,2.014-1.524,5.2538-1.9225-.5582.8273-1.0916,1.6813-1.5891,2.5635l.8242.4579A55.2348,55.2348,0,0,1,79.266,62.9072,5.788,5.788,0,0,0,81.81,60.0817c1.3747-2.81,2.6715-4.9713,4.9271-4.9713A3.2541,3.2541,0,0,1,89.24,56.4343l1.6337.4878-1.6538,1.12,1.69.6719a10.4778,10.4778,0,0,0-6.4373,5.9093c-2.35.1255-3.4837,2.0275-4.2515,3.62-.5179,1.0751-1.3425,1.5042-2.5437,2.3176l-9.6066,6.697,1.322.1832,8.8749-5.9432a8.2871,8.2871,0,0,0,3.0023-2.8909c.8235-1.6457,1.71-2.87,3.4505-2.87a3.72,3.72,0,0,1,2.5044,1.0584l1.5565.5082-1.699,1.04,1.4249.8749c-4.072,1.2751-6.5959,4.1928-8.0618,9.7706l1.0795.2443a19.12,19.12,0,0,1,2.0278-5.0358c2.3592-.0275,4.7473-.1137,7.092-.1137,6.2552,0,11.4483.2639,14.2513,1.0892l-.9923-1.7216a84.6252,84.6252,0,0,0-13.259-.7725c-1.9818,0-3.9895.0738-5.983.0946a13.3424,13.3424,0,0,1,5.9931-3.3921L88.63,68.266l2.2485-1.2469L87.8152,65.88a4.7909,4.7909,0,0,0-2.04-1.1338c.98-3.0154,4.323-4.7771,7.5265-5.9914l-2.2445-.9155L93.3206,56.6l-3.4846-1.112a3.7572,3.7572,0,0,0-3.13-1.5565c-3.2321,0-4.59,2.8068-5.8727,5.2947a5.6086,5.6086,0,0,1-2.2489,2.6129,50.378,50.378,0,0,0-8.68,7.2964,24.709,24.709,0,0,1-5.6868-6.2891,6.2286,6.2286,0,0,0-.6867,1.359c.33.3488,4.1341,4.1914,5.548,5.82-.107.1177-.2123.2379-.3193.3573a32.8617,32.8617,0,0,1-6.755.4941l-.7477,1.3283c.9953-.0979,4.8848-.5565,6.499-.65q-.7341.8892-1.4374,1.8346c-5.0029.5689-8.344,1.5941-8.344,3.4424,0,.3042.1214.65.1214.9765a1.418,1.418,0,0,1-.84,1.4045c-.3579.2258-.3814.3821-.2284.5958a8.214,8.214,0,0,1,.9255,1.5823c0,.3707-.368.7407-.6656,1.0731-.26.2911-.25.367-.0466.7339l1.45,3.0832,1.5454,1.1073Z" fill="#5c5d5d" fill-rule="evenodd"/><path d="M122.1784,70.226a6.5913,6.5913,0,0,0-.8373,1.0762l-.8054-1.1315c2.6906-3.5856,9.7975-5.2679,13.9661-5.5641V62.6831c-.529.163-1.1.3469-1.6276.4723a8.3963,8.3963,0,0,1-2.0161.3314,1.5985,1.5985,0,0,1-1.2726-.5588c-.5592-.7987-.04-2.0057,1.7916-3.1348l-1.4455-1.2012a28.3579,28.3579,0,0,1-3.33,3.9948c-1.0154.8662-2.0787,1.2982-2.9385.6565-.4632-.3449-.637-.5038-.6826-1.4045a13.06,13.06,0,0,1,1.5769-4.6514l-1.71-.2009a13.7031,13.7031,0,0,1-5.9448,9.0857l-.9507-.9363a11.1255,11.1255,0,0,0,3.64-3.3582,11.8213,11.8213,0,0,0,2.117-6.035l4.9462.4679a16.3233,16.3233,0,0,0-2.2767,4.343c-.2268.7545-.2157,1.3547.0584,1.56.5239.3925,1.4424-.2341,2.3337-1.19A41.6245,41.6245,0,0,0,129.8,56.81l3.5775,2.9677c-1.59.842-3.1315,1.8051-2.8248,2.3455.28.4924,1.2985.3448,2.4152.0026a13.1988,13.1988,0,0,0,2.6534-1.1532v4.8351a26.8443,26.8443,0,0,0-7.458,1.1514c.6686.9442,2.5893,1.291,3.8093,1.4588l-.6108,3.9238a22.3829,22.3829,0,0,0-9.1836-2.1161l1.2341-1.06a17.92,17.92,0,0,1,7.0686,1.6417l.2234-1.4854a6.95,6.95,0,0,1-3.93-1.8923,14.6556,14.6556,0,0,0-3.3622,1.736l-1.2341,1.06Z" fill="#5c5d5d" fill-rule="evenodd"/><path d="M107.4384,82.694l1.1452-2.4739a44.12,44.12,0,0,1-3.6869-5.0475l-.9923-1.7216c-2.2911-4.3517-1.4568-6.43-2.6785-8.3449-1.0114-1.583-5.9194-.5974-6.7335-.4277l1.42-2.3512-2.799.2234,2.3723-2.8184a4.96,4.96,0,0,0,.6552-1.68,5.253,5.253,0,0,1,5.4309-4.02c4.1465,0,5.432,3.3552,7.24,4.8123,2.0523,1.6521,4.7419,3.9724,7.14,6.2914l.9507.9363a39.2547,39.2547,0,0,1,3.6336,4.0985l.8054,1.1315c4.9915,7.2876,11.1933,21.2172,13.9363,27.5957.265.6169.4542,1.2435.6192,1.7192-1.8621-1.0261-3.9147-2.3022-6.0257-3.76l-1.23-.8671c-.7614-.5468-1.5263-1.1178-2.29-1.7048l-1.2653-.9946q-1.1363-.9088-2.2505-1.8674l2.4964,14.536c.1841.8557.9154.7131,1.5062-.04s.8141-.9577.5907-1.9553l-2.3428-10.6734,1.2653.9946,2.2448,9.0692c.2174.8192.5633,1.0781,1.5193,1.12s1.1613-.3263.9567-.9566L128.6408,95.99l1.23.8671,2.3,6.7613c.59,1.7306,0,1.9339-1.0375,1.9339s-1.9748-.2449-2.5451.1224a21.6219,21.6219,0,0,0-2.1385,2.2428c-.7548.7722-1.852.5693-2.0757-.8785L121.6158,90.35a62.9363,62.9363,0,0,1-5.0361-5.0461c-.6729-.2852-1.43-.6357-2.0989-.948l-1.04-.4851c-.3693-.17-.6414-.2908-.7507-.3234a22.1633,22.1633,0,0,1-2.3505,2.6716,1.9108,1.9108,0,0,1-1.4354.6112,1.3752,1.3752,0,0,1-.7031-.1376,2.5284,2.5284,0,0,1-.7628-.8393c-.2023-.3092-.5015-.7061-.7635-1.1452-.5451-.9154-1.1328-2.0637-1.6639-2.9925-.5947-1.0433-1.1056-1.8239-1.1754-1.9534a2.065,2.065,0,0,0-.3964-.4434,4.4856,4.4856,0,0,0-.5049,1.8936l-1.0379-.3512a17.0562,17.0562,0,0,1,.5646-2,.9623.9623,0,0,0-.7474-.8548c-.4736,0-.9611.52-1.2059,1.5119l-1.053.4576c.1224-1.6035.6705-3.3592,2.2589-3.3592A3.3819,3.3819,0,0,1,104.4,78.51c.6111.9155,2.6118,3.649,3.0385,4.1837l.794,1.0064a3.2717,3.2717,0,0,0,.534,1.1908c.2754.4284.581.3975.9926.0158.1882-.1741.793-.6659,1.3787-1.2777a10.5108,10.5108,0,0,0,1.2016-1.5015c.5827.2613,1.6672.78,2.5411,1.1657-3.7487-4.6188-7.3357-10.2232-8.8922-14.0352-.6437-1.5743.6139-2.1026,1.2207-.55,1.65,4.2137,6.4735,11.664,10.0152,15.5716,4.0945,4.5189,11.6029,11.0541,16.4884,13.68-.7078-1.3814-1.6434-3.3659-2.7229-5.6644a41.1926,41.1926,0,0,1-14.747-14.8339l1.2311.1423c2.6058,4.607,8.8287,10.7538,12.5045,12.54-3.3611-7.1344-7.7361-16.1727-11.15-20.0613a108.1962,108.1962,0,0,0-11.0692-10.4935c-2.1778-1.9131-3.0741-4.3149-6.2085-4.3149a4.596,4.596,0,0,0-4.4629,3.74,2.8532,2.8532,0,0,1-.4276.9765L95.439,61.4567l2.641-.32-1.5273,2.1368s4.1391-.9292,5.5886,1.0379c1.5605,2.12.5532,4.5011,3.1143,9.13a39.1368,39.1368,0,0,0,4.7624,6.5037L108.2324,83.7l-.794-1.0064Z" fill="#5c5d5d" fill-rule="evenodd"/><path d="M66.7524,83.3348l-.626-.4271a7.6642,7.6642,0,0,1,1.7246-1.0389,2.9385,2.9385,0,0,1,1.0476-.22,4.0358,4.0358,0,0,1,1.8966.6078A7.1783,7.1783,0,0,0,73.58,83.3378c.3053,0,.6008-.07.9466-.07.7954,0,1.5582.3556,1.9946.3556.265,0,.4482-.2372.6223-.4878a4.0314,4.0314,0,0,1,1.8148-1.4216,7.622,7.622,0,0,1,2.913-.4854,10.7987,10.7987,0,0,1,2.102.2144s-.6525.7859-.8152.9593a10.6992,10.6992,0,0,0-3.5618.3979,1.1725,1.1725,0,0,0-.88,1.1764c0,.7783.8688,1.0822,1.8369,1.3757a6.21,6.21,0,0,0,1.75.2153,19.4081,19.4081,0,0,0,3.1982-.5282c1.52-.3345,2.9335-.7333,3.3464-.8866l.5491.9878a43.128,43.128,0,0,1-5.028,1.4415,13.1244,13.1244,0,0,1-2.5441.2988,9.4928,9.4928,0,0,1-3.8378-1.09,6.9062,6.9062,0,0,0-2.6089-.9185,5.0128,5.0128,0,0,0-2.494.76,19.2728,19.2728,0,0,1-2.6424,1.4612,5.89,5.89,0,0,1-2.2991.5,2.3146,2.3146,0,0,1-1.5515-.4l1.2754-.7813a.9539.9539,0,0,0,.641.1936,2.1859,2.1859,0,0,0,.9024-.2315,7.3894,7.3894,0,0,0,.947-.535,7.2707,7.2707,0,0,0,.87-.6719.6637.6637,0,0,0,.0352-1.15,5.1783,5.1783,0,0,0-.7826-.6061,2.5,2.5,0,0,0-1.5578-.5237,4.2643,4.2643,0,0,0-1.9694.4469Z" fill="#5c5d5d" fill-rule="evenodd"/><path d="M84.5235,83.8393A9.2681,9.2681,0,0,0,83.5,83.61a7.2768,7.2768,0,0,1,1.71-1.6333,6.9688,6.9688,0,0,1,3.76-1.1831c.4468-.0268,1.3553-.1137,1.8621-.0919a14.4217,14.4217,0,0,1,1.9439.1835c.5039.0942.9742.2342,1.3647.2949a7.3282,7.3282,0,0,0,1.3525-.02,11.8019,11.8019,0,0,0,3.2884-1.0305l.3053,1.1144a11.7079,11.7079,0,0,1-4.9613,1.5722c-.8252,0-1.7035-.0611-2.52-.1388-1.4415-.1386-2.69-.33-3.1184-.33a6.7643,6.7643,0,0,0-3.9643,1.4918Z" fill="#5c5d5d" fill-rule="evenodd"/><path d="M83.3665,90.0454l-1.4736-.6746a29.1989,29.1989,0,0,1,6.45-2.2774,28.08,28.08,0,0,0,3.5929-.64c.3875.9761,1.151,2.0221,2.2516,2.0221a5.7412,5.7412,0,0,0,1.7225-.5965c.7444-.3277,1.4921-.6866,1.8795-.86.4187-.1855,1.7772-.7816,2.9282-1.2949.44-.1955,1.6487-.77,1.7175-.8084l.7739.4173a16.0457,16.0457,0,0,1-1.054,3.1623,3.8456,3.8456,0,0,1-.524.848,9.6033,9.6033,0,0,1-1.588,1.3854c-.7739.5495-1.7175,1.1137-2.7188,1.6877-.78.4488-1.5639.9044-2.3592,1.27l-.4126-.7494a35.95,35.95,0,0,0,3.5675-2.383c.5182-.3841,1.02-.7725,1.378-1.0989a3.4991,3.4991,0,0,0,.5652-.6414,11.6292,11.6292,0,0,0,1.0178-1.8625c-.4573.2238-2.1872,1.04-2.961,1.4452-.8739.4589-2.29,1.1814-3.0838,1.5561a4.0506,4.0506,0,0,1-1.5824.4562,1.6958,1.6958,0,0,1-1.5071-1.0248c-.5592-.9979-1.16-1.0892-2.7383-1.11a11.3714,11.3714,0,0,0-5.8422,1.7712Z" fill="#5c5d5d" fill-rule="evenodd"/><path d="M91.9725,85.4417s-.2147-.8718-.3157-1.1868a2.0583,2.0583,0,0,1,.5907-.0852c.5492,0,1.9068.1529,2.4693.1529a4.4762,4.4762,0,0,0,3.5252-1.2294,3.1871,3.1871,0,0,1,2.52-.8675,8.7517,8.7517,0,0,1,3.15.7156l-.0908,1.1569a4.9163,4.9163,0,0,0-2.2305-.5766,3.0368,3.0368,0,0,0-1.3327.214,5.8073,5.8073,0,0,0-.956.7749,5.4128,5.4128,0,0,1-1.5579.8534,7.6723,7.6723,0,0,1-2.7413.4146,15.2725,15.2725,0,0,1-3.0294-.3368Z" fill="#5c5d5d" fill-rule="evenodd"/><path d="M78.5424,94.1876l.9775-.4049a10.0088,10.0088,0,0,0,3.0912.741,3.2711,3.2711,0,0,0,1.3572-.3586c.2885-.1285,3.5454-1.7269,5.1619-2.313a4.5517,4.5517,0,0,1,1.29-.29c.3864,0,.4089.1731.5189.3512.3056.4884,2.7091,3.92,2.954,4.1845a14.1188,14.1188,0,0,0,5.3326-2.7015c1.2549-1.2089,2.2979-2.6108,3.3056-3.6946a5.3487,5.3487,0,0,1,1.1063-.9242c1.0429-.5541,4.285-.6025,5.6483-.5413l-.8081,1.1442c-2.4025,0-3.7463.2479-4.3515.7023a5.9982,5.9982,0,0,0-1.0093,1.0594c-.8206,1.07-1.7159,2.5337-2.0748,2.8191a4.373,4.373,0,0,0,2.6926.9152,6.4882,6.4882,0,0,0,4.2921-1.9916l.6837.4072a8.1486,8.1486,0,0,1-1.8209,1.8289,8.8357,8.8357,0,0,1-2.4578,1.0845c-1.18-.2251-3.7822-.7487-4.392-.87-2.25.9159-5.9133,2.3975-7.1444,2.7679a4.8888,4.8888,0,0,1-.83.1328c-.9728.0533-2.3254.0463-3.5575.0308a17.6621,17.6621,0,0,1-2.117-.0825l-1.0855-1.1335a9.5329,9.5329,0,0,0,2.2244.2382,15.1259,15.1259,0,0,0,3.9288-.4683c.3774-.0966.44-.3156.3277-.6554a4.7218,4.7218,0,0,0-.9691-1.6112,7.965,7.965,0,0,0-1.0681-.97c-.2912-.198-.5756-.2483-1.3747.0235-.74.2518-3.0384,1.4961-4.03,2.0231a2.1253,2.1253,0,0,1-1.7491.1294,19.9857,19.9857,0,0,1-4.0532-1.5725Z" fill="#5c5d5d" fill-rule="evenodd"/><path d="M84.9143,68.6823a.8348.8348,0,1,0-.8356-.8346.8349.8349,0,0,0,.8356.8346Z" fill="#5c5d5d" fill-rule="evenodd"/></svg>