<svg xmlns="http://www.w3.org/2000/svg" viewBox="0 0 320 160"><title>client</title><path d="M157.064,88.65h5.8721v9.279h7.0179V84.4452c0-.58-.2865-2.9-2.2916-2.9h-3.58l6.0154-10.0039H162.65l-5.5856,8.6991V71.5416h-6.5884V97.9285h6.5884V88.65Z" fill="#5c5d5d" fill-rule="evenodd"/><path d="M206.7626,81.11V78.5009H218.65V71.5416H201.6066a2.5552,2.5552,0,0,0-2.5781,2.4648V85.6049c0,1.45.573,2.4649,1.8621,2.4649h10.0256v2.8994H199.0285v6.8142h17.1871a2.5958,2.5958,0,0,0,2.4347-2.7546V83.5752a2.4293,2.4293,0,0,0-2.4347-2.4648Z" fill="#5c5d5d" fill-rule="evenodd"/><polygon points="235.98 81.4 235.98 71.542 242.712 71.542 242.712 97.783 235.98 97.783 235.98 89.085 229.965 89.085 229.965 97.783 223.234 97.783 223.234 71.542 229.965 71.542 229.965 81.4 235.98 81.4 235.98 81.4" fill="#5c5d5d" fill-rule="evenodd"/><path d="M177.5452,117.6921H142.1681c-2.5438,0-3.78-1.4852-3.78-4.54V46.75c0-3.0554,1.3306-4.5406,4.067-4.5406h35.377c1.79,0,3.9237.813,3.9237,4.6857v66.112C181.7555,115.9841,180.2211,117.6921,177.5452,117.6921Zm-35.09-73.6507c-1.2227,0-2.2347.2038-2.2347,2.7083v66.4022c0,2.5084.8445,2.7079,1.948,2.7079h35.3771c1.0206,0,2.378-.2954,2.378-2.853V46.8948c0-2.6328-1.0794-2.8534-2.0914-2.8534Z" fill="#5c5d5d"/><path d="M190.4352,114.3112a3.2,3.2,0,0,1-1.0025,2.4649,3.3616,3.3616,0,0,1-2.2916,1.0148,3.2159,3.2159,0,0,1-3.2942-3.48,3.3164,3.3164,0,0,1,.8592-2.32,3.1232,3.1232,0,0,1,2.435-1.0148,2.835,2.835,0,0,1,2.2916,1.0148,2.9011,2.9011,0,0,1,1.0025,2.32Zm-3.2941-2.8994a2.39,2.39,0,0,0-2.0052.87,2.88,2.88,0,0,0-.8595,2.03,2.4468,2.4468,0,0,0,.8595,2.03,2.3909,2.3909,0,0,0,2.0052.87,2.8121,2.8121,0,0,0,2.0051-.87,2.4472,2.4472,0,0,0,.8592-2.03,2.8806,2.8806,0,0,0-.8592-2.03,2.8108,2.8108,0,0,0-2.0051-.87Z" fill="#5c5d5d" fill-rule="evenodd"/><path d="M185.7086,112.4267h1.2891a7.9812,7.9812,0,0,1,1.0025.1448,1.0971,1.0971,0,0,1,.573,1.0149,1.1133,1.1133,0,0,1-.2865.7248c-.1431,0-.43.1452-.5729.1452.2864,0,.43.1448.5729.4348a.7562.7562,0,0,1,.2865.58v.7249H188v-.1449h0v-.29a.88.88,0,0,0-.43-.87c-.1431-.1448-.2865-.1448-.7162-.1448h-.4295v1.45h-.7164v-3.7694Zm2.2916,1.16c0-.29-.1431-.4349-.2864-.4349a1.0617,1.0617,0,0,0-.7161-.1451h-.5727v1.3048h.5727c.2865,0,.43,0,.573-.1449.2864,0,.43-.29.43-.58Z" fill="#5c5d5d" fill-rule="evenodd"/><path d="M177.6885,117.3786H142.3123c-2.397,0-3.466-1.2589-3.466-4.0825V46.75c0-2.7851,1.1467-4.0825,3.6085-4.0825h35.377c2.3,0,3.4652,1.4226,3.4652,4.2276v66.2571C181.297,116.9667,178.7739,117.3786,177.6885,117.3786ZM142.4548,43.5833c-1.6165,0-2.6932.5384-2.6932,3.1664v66.5464c0,2.6483.9351,3.1672,2.5507,3.1672h35.3762c1.7615,0,2.6932-1.145,2.6932-3.3114V46.8948c0-2.935-1.3626-3.3115-2.55-3.3115Zm25.78,62.0519H152.4807c-2.3694,0-2.7493-.1684-2.7493-2.4877V56.6086c0-1.5823.0924-2.3431,2.176-2.3431h16.3277c2.0335,0,2.0335.9365,2.0335,2.4882v46.3938C170.2686,104.7976,169.9543,105.6352,168.2351,105.6352ZM151.9074,55.1817c-1.2607,0-1.2607,0-1.2607,1.4269v46.5389c0,1.5724,0,1.5724,1.834,1.5724h15.7544c.8859,0,1.1182-.063,1.1182-1.5724V56.7537c0-1.572,0-1.572-1.1182-1.572Z" fill="#5c5d5d"/><path d="M94.3317,97.7834c1.1457-.4349,2.4348-1.5949,2.4348-2.9V74.1513a2.5583,2.5583,0,0,0-2.4348-2.61H79.4363a2.7972,2.7972,0,0,0-2.1483,2.61V94.8837a3.1311,3.1311,0,0,0,2.1483,2.9ZM90.035,89.9543c-.1432,1.0149-1.0026,1.0149-1.4322,1.0149H85.0221c-.573-.1449-.7161-.29-1.0025-1.0149V79.9507a1.1658,1.1658,0,0,1,1.0025-1.5949h4.01c1.0026.1451,1.0026,1.16,1.0026,1.5949V89.9543Z" fill="#5c5d5d" fill-rule="evenodd"/><path d="M109.0838,81.11V78.5009h11.8877V71.5416H103.9278a2.555,2.555,0,0,0-2.5781,2.4648V85.6049c0,1.45.573,2.4649,1.862,2.4649h10.0257v2.8994H101.35v6.8142h17.1868a2.5959,2.5959,0,0,0,2.435-2.7546V83.5752a2.43,2.43,0,0,0-2.435-2.4648Z" fill="#5c5d5d" fill-rule="evenodd"/><polygon points="138.302 81.256 138.302 71.542 145.176 71.542 145.176 97.783 138.302 97.783 138.302 89.085 132.429 89.085 132.429 97.783 125.554 97.783 125.554 71.542 132.429 71.542 132.429 81.256 138.302 81.256 138.302 81.256" fill="#5c5d5d" fill-rule="evenodd"/><path d="M192.0105,97.7834c1.146-.4349,2.435-1.5949,2.435-2.9V74.1513a2.4667,2.4667,0,0,0-2.435-2.61H177.1154a2.7974,2.7974,0,0,0-2.1486,2.61V94.8837a3.131,3.131,0,0,0,2.1486,2.9Zm-4.2967-7.8291c-.1431,1.0149-1.0026,1.0149-1.4322,1.0149h-3.5807c-.5727-.29-.716-.29-1.0026-1.0149V79.9507a1.166,1.166,0,0,1,1.0026-1.5949h4.01c1.0026.1451,1.0026,1.16,1.0026,1.5949V89.9543Z" fill="#5c5d5d" fill-rule="evenodd"/></svg>